# xmcd
#
# Track frame offsets:
#	150
#	13105
#	29942
#	43261
#	67999
#	82571
#	98840
#	117761
#	140668
#	152855
#	170505
#	181845
#	191370
#	205202
#	220097
#	238259
#	250959
#	269045
#
# Disc length: 3816 seconds
#
# Revision: 0
# Processed by: cddbd v1.5.1PL0 Copyright (c) Steve Scherf et al.
# Submitted via: dBpowerAMP V4.0
#
DISCID=050ee612
DTITLE=Various Artist - a country line dance colection
DYEAR=1900
DGENRE=line dance
TTITLE0=three times loser - hollywood hillbillies
TTITLE1=crystal chandelier - alan cameron
TTITLE2=country mile - debra hart
TTITLE3=be a yodel-lay-dee line dancer - big al
TTITLE4=everything's big in texas - mark reichow
TTITLE5=tough guys don't dance - colin mackay
TTITLE6=put'em where the sun don't shine - paul griggs
TTITLE7=i've forgotten what it is i drink to forget - harry lang
TTITLE8=daddy's dressing up again - tennessee whiskey
TTITLE9=black coffee - sean kenny
TTITLE10=hillbilly rock, hilbilly roll - sideliners
TTITLE11=no honky tonks in heaven - hollywood hillbillies
TTITLE12=louisiana - aaron woolley
TTITLE13=love my car - watermelon henry
TTITLE14=saddle up country style  - david christie
TTITLE15=situation vacant - northern lights
TTITLE16=this don't feel like dancing - bobby lee
TTITLE17=macarena - pedro patata
EXTD=
EXTT0=
EXTT1=
EXTT2=
EXTT3=
EXTT4=
EXTT5=
EXTT6=
EXTT7=
EXTT8=
EXTT9=
EXTT10=
EXTT11=
EXTT12=
EXTT13=
EXTT14=
EXTT15=
EXTT16=
EXTT17=
PLAYORDER=
